<svg width="24" height="9" viewBox="0 0 24 9" fill="none" xmlns="http://www.w3.org/2000/svg">
<path d="M2.09961 6.82324H5.20996V8H0.634766V0.890625H2.09961V6.82324ZM8.82344 8C8.75833 7.87305 8.71113 7.71517 8.68184 7.52637C8.34004 7.90723 7.8957 8.09766 7.34883 8.09766C6.83125 8.09766 6.40156 7.94792 6.05977 7.64844C5.72122 7.34896 5.55195 6.97135 5.55195 6.51562C5.55195 5.95573 5.75866 5.52604 6.17207 5.22656C6.58874 4.92708 7.18932 4.77572 7.97383 4.77246H8.62324V4.46973C8.62324 4.22559 8.55977 4.03027 8.43281 3.88379C8.30911 3.7373 8.11217 3.66406 7.84199 3.66406C7.60436 3.66406 7.41719 3.72103 7.28047 3.83496C7.14701 3.94889 7.08027 4.10514 7.08027 4.30371H5.66914C5.66914 3.99772 5.76354 3.71452 5.95234 3.4541C6.14115 3.19368 6.40807 2.99023 6.75313 2.84375C7.09818 2.69401 7.48555 2.61914 7.91523 2.61914C8.56628 2.61914 9.08223 2.78353 9.46309 3.1123C9.8472 3.43783 10.0393 3.89681 10.0393 4.48926V6.7793C10.0425 7.2806 10.1125 7.65983 10.2492 7.91699V8H8.82344ZM7.65645 7.01855C7.86478 7.01855 8.05684 6.97298 8.23262 6.88184C8.4084 6.78743 8.53861 6.66211 8.62324 6.50586V5.59766H8.0959C7.38952 5.59766 7.01354 5.8418 6.96797 6.33008L6.96309 6.41309C6.96309 6.58887 7.02494 6.73372 7.14863 6.84766C7.27233 6.96159 7.4416 7.01855 7.65645 7.01855ZM15.684 5.40723C15.684 6.25358 15.5033 6.91439 15.142 7.38965C14.7807 7.86165 14.2761 8.09766 13.6283 8.09766C13.0554 8.09766 12.598 7.87793 12.2563 7.43848L12.1928 8H10.9232V0.5H12.3344V3.19043C12.6599 2.80957 13.088 2.61914 13.6186 2.61914C14.2631 2.61914 14.7676 2.85677 15.1322 3.33203C15.5001 3.80404 15.684 4.46973 15.684 5.3291V5.40723ZM14.2729 5.30469C14.2729 4.77083 14.1882 4.38184 14.0189 4.1377C13.8497 3.8903 13.5974 3.7666 13.2621 3.7666C12.8129 3.7666 12.5036 3.95052 12.3344 4.31836V6.40332C12.5069 6.77441 12.8194 6.95996 13.2719 6.95996C13.7276 6.95996 14.0271 6.73535 14.1703 6.28613C14.2387 6.07129 14.2729 5.74414 14.2729 5.30469ZM18.7896 8.09766C18.0149 8.09766 17.3834 7.86003 16.8951 7.38477C16.4101 6.90951 16.1676 6.27637 16.1676 5.48535V5.34863C16.1676 4.81803 16.2701 4.3444 16.4752 3.92773C16.6803 3.50781 16.97 3.18555 17.3443 2.96094C17.7219 2.73307 18.1516 2.61914 18.6334 2.61914C19.3561 2.61914 19.9241 2.84701 20.3375 3.30273C20.7542 3.75846 20.9625 4.40462 20.9625 5.24121V5.81738H17.5982C17.6438 6.16243 17.7805 6.43913 18.0084 6.64746C18.2395 6.85579 18.5309 6.95996 18.8824 6.95996C19.426 6.95996 19.8508 6.76302 20.1568 6.36914L20.8502 7.14551C20.6386 7.44499 20.3521 7.67936 19.9908 7.84863C19.6295 8.01465 19.2291 8.09766 18.7896 8.09766ZM18.6285 3.76172C18.3486 3.76172 18.1207 3.85612 17.9449 4.04492C17.7724 4.23372 17.6617 4.50391 17.6129 4.85547H19.5758V4.74316C19.5693 4.43066 19.4846 4.18978 19.3219 4.02051C19.1591 3.84798 18.928 3.76172 18.6285 3.76172ZM23.0574 8H21.6414V0.5H23.0574V8Z" fill="white"/>
</svg>
